<svg width="473" height="361" viewBox="0 0 473 361" fill="none" xmlns="http://www.w3.org/2000/svg">
<path d="M197.54 355.35C44.15 365.14 -38.2501 234.59 19.1699 106.79C27.2299 88.85 37.7799 71.8499 51.4399 56.5699C140.25 -42.8201 290.99 8.4799 356.61 72.5799C394.78 109.87 472.74 104.98 472.74 226.46C472.74 300.67 405.78 344.68 344.82 346.95L197.55 355.35H197.54Z" fill="#7D9CDB"/>
<path d="M388.53 59.08C388.53 59.08 402.01 60.9 400.97 76.4C399.93 91.91 399.22 109.52 400.97 124.25C402.72 138.99 411.09 171.3 407.26 196.65C403.42 222 400.04 240.55 400.34 260.57C400.64 280.59 406.96 318.95 401.18 333.08C401.18 333.08 386.59 290.57 384.37 238.32C382.15 186.07 388.53 59.08 388.53 59.08Z" fill="#313663"/>
<path d="M73.9299 63.22C73.9299 63.22 50.12 67.8199 48.02 92.0699C45.93 116.32 56.74 137.45 59.53 154.79C62.32 172.13 58.8299 197.17 62.6699 212.9C66.5099 228.63 66.51 246.98 63.02 259.61C59.53 272.23 62.2899 305.45 67.7099 321.8H87.78L73.9299 63.23V63.22Z" fill="#313663"/>
<path d="M392.99 244.57C394.83 225.27 402.67 193.57 399.9 153.57C397.14 113.57 393.45 94.8199 396.21 81.4699C398.97 68.1199 399.44 60.7999 381.01 56.9499C362.58 53.0999 332.11 52.7099 299.66 46.9399C267.21 41.1599 192.97 46.1699 166.28 52.3299C139.59 58.4899 113.78 60.51 81.0701 61.81C81.0701 61.81 54.3501 62.73 54.8101 92.77C55.2701 122.81 62.64 130.36 67.94 150.28C73.24 170.2 70.48 198.27 73.24 225.45C75.94 252.04 64.53 284.7 67.71 321.81C100.82 345.62 145.02 358.72 197.54 355.37L344.81 346.97C363.75 346.26 383.27 341.53 401.18 333.11C398.48 299.06 391.5 260.23 392.99 244.59V244.57Z" fill="#3D4375"/>
<path d="M379.2 341.36L400.34 323.63C400.25 322.74 400.16 321.84 400.07 320.94C399.36 316.39 397.66 306.88 394.95 300.66C391.28 292.24 387.07 280.83 388.02 274.86C388.97 268.89 388.59 263.53 385.67 261.91C382.75 260.29 357.76 256.51 351.1 256.6C344.44 256.69 335.41 256.21 335.41 256.21C335.41 256.21 324.91 232.2 317.71 213.87C310.51 195.54 299.99 181.3 299.99 181.3V166.91H184.74L167.87 190.89C167.87 190.89 165.07 194.94 163.95 199.85C163.95 199.85 150.04 214.28 139.99 251.43C136.03 262.28 130.86 270.8 130.86 270.8C119.16 271.47 87.8599 271.02 84.1599 272.88C84.1599 272.88 83.44 277.45 78.01 284.78C73.81 290.45 68.19 302.06 67.22 312.77C67.3 315.75 67.46 318.76 67.72 321.81C100.83 345.62 145.03 358.72 197.55 355.37L344.82 346.97C356.23 346.54 367.86 344.65 379.22 341.38L379.2 341.36Z" fill="#313663"/>
<path d="M249.94 60.06C249.94 60.06 246.66 59.38 244.42 57.79C242.18 56.2 239.62 56.48 238.82 60.6C238.02 64.72 238.63 64.3 235.96 71.88C233.29 79.46 225.98 97.47 223.97 107.06C218.26 134.25 218.29 152.26 216.39 155.26C214.49 158.26 212.07 164.16 216.04 164.24C220.01 164.32 236.6 162.42 243.21 165.8C249.83 169.19 279.26 175.78 290.95 176.96C302.64 178.14 335.93 191.88 345.66 193.65C355.39 195.42 362.57 204.4 365.44 202.29C368.31 200.18 366.44 192.66 366.62 190.07C366.8 187.47 374.44 164.42 378.49 147.41C381.44 135.04 384.91 119.24 384.37 107.01C384.09 104.45 383.22 101.36 384.29 99.63C386.32 96.34 386.46 95.01 385.09 93.28C383.97 91.87 382.57 92.21 381.12 92.92C379.81 93.56 369.88 92.9199 361.09 87.4599C352.59 82.1799 337.93 78.1399 327.28 76.2099C316.63 74.2799 299.8 67.84 286.51 63.91C272.94 59.89 258.62 61.16 249.95 60.05L249.94 60.06Z" fill="#313663"/>
<path d="M162.95 85.9201C162.95 85.9201 159.62 86.2601 157 85.4201C154.39 84.5801 152.03 85.62 152.5 89.79C152.98 93.96 153.44 93.38 153.18 101.41C152.92 109.44 151.38 128.82 152.35 138.57C155.1 166.22 160.56 183.38 159.65 186.81C158.74 190.24 158.21 196.6 162.02 195.47C165.83 194.34 181.07 187.54 188.4 188.77C195.73 190 225.78 187.42 237.28 185.02C248.78 182.63 284.67 185.69 294.48 184.45C304.29 183.21 311.93 190.58 314.03 187.7C316.13 184.82 310.83 181.49 310.22 178.96C309.61 176.43 313.11 147.9 311.85 130.47C310.93 117.79 309.48 101.68 305.28 90.1701C304.24 87.8101 302.48 85.13 302.98 83.16C303.93 79.41 303.66 78.1 301.83 76.87C300.34 75.86 299.11 76.61 297.93 77.72C296.87 78.72 287.21 81.1101 277.19 78.5501C267.5 76.0701 252.3 76.64 241.56 78.01C230.82 79.38 212.83 78.32 198.98 78.57C184.83 78.83 171.55 84.36 162.96 85.91L162.95 85.9201Z" fill="#313663"/>
<path d="M79.86 102.54C79.86 102.54 76.6598 103.52 73.9298 103.21C71.1998 102.9 69.09 104.38 70.37 108.37C71.65 112.37 71.99 111.71 73.3 119.63C74.61 127.56 76.8699 146.86 79.7199 156.24C87.7999 182.83 92.08 196.56 91.86 200.11C91.64 203.66 91.77 215.14 100.29 210.17C103.72 208.17 117.43 198.68 124.86 198.46C132.29 198.24 161.26 189.85 172.07 185.27C182.88 180.68 218.68 176.7 228.06 173.57C237.44 170.44 246.37 176.18 247.87 172.95C249.37 169.72 243.53 167.48 242.43 165.12C241.34 162.76 239.21 134.1 234.58 117.24C231.21 104.98 226.65 89.46 220.29 78.99C218.81 76.88 216.56 74.59 216.67 72.57C216.87 68.71 216.35 67.48 214.31 66.62C212.65 65.92 211.59 66.89 210.65 68.21C209.81 69.4 200.8 73.6201 190.47 73.0601C180.48 72.5201 165.68 76.03 155.42 79.47C145.16 82.91 127.3 85.3601 113.76 88.3101C99.9299 91.3201 87.99 99.3301 79.86 102.52V102.54Z" fill="#313663"/>
<path d="M135.18 218.18C141.4 219.21 147.59 220.51 153.71 222.02C159.85 223.46 165.97 225.27 171.65 228.05L171.61 228.15C159.5 224.72 147.5 220.86 135.16 218.29L135.18 218.18Z" fill="#313663"/>
<path d="M152.59 217.64C158.17 219.76 167.15 222.4 170.93 226.97L170.86 227.05C164.94 223.61 158.82 220.51 152.56 217.74L152.6 217.64H152.59Z" fill="#313663"/>
<path d="M149.57 226.27C156.47 227.52 163.42 228.12 170.43 228.41L170.45 228.52C164.5 230.34 155.6 227.81 149.55 226.38L149.57 226.28V226.27Z" fill="#313663"/>
<path d="M162.47 254.62C153.98 254.88 145.5 255.64 137.02 256.08L137 255.98C141.06 254.58 145.43 254.43 149.69 254.4C153.94 254.31 158.23 254.36 162.47 254.52V254.63V254.62Z" fill="#313663"/>
<path d="M153.98 252.87C155.37 252.82 156.89 252.83 158.28 252.89C159.73 252.87 161.26 253.02 162.48 253.89L162.45 253.99C161.02 254.25 159.59 254.08 158.19 253.74C156.82 253.51 155.33 253.24 153.97 252.98V252.87H153.98Z" fill="#313663"/>
<path d="M161.52 256.08C160.74 256.3 159.87 256.49 159.07 256.64C158.23 256.9 157.34 256.94 156.56 256.45V256.34C157.25 255.74 158.14 255.65 159 255.78C159.82 255.81 160.7 255.87 161.5 255.97V256.08H161.52Z" fill="#313663"/>
<path d="M316.17 218.19C325.02 211.13 336.01 206.02 347.41 205.34L347.43 205.45C336.5 208.16 325.35 211.38 316.24 218.27L316.17 218.19Z" fill="#313663"/>
<path d="M316.18 219.45C321.47 216.76 328.28 213.99 334.29 214.74V214.85C328.2 216.23 321.99 217 316.23 219.55L316.18 219.45Z" fill="#313663"/>
<path d="M316.16 215.69C316.78 214.62 317.51 213.6 318.31 212.65C319.33 211.39 320.59 210.08 322.32 210.04L322.36 210.14C321.33 211.32 320.06 212.21 318.87 213.2C317.96 214.02 317.08 214.87 316.25 215.76L316.16 215.7V215.69Z" fill="#313663"/>
<path d="M326.22 245.81C333.26 243.13 340.58 241.16 347.96 239.66C353.68 238.46 359.65 237.9 365.48 238.27V238.38C352.22 239.73 338.94 241.67 326.25 245.91L326.21 245.81H326.22Z" fill="#313663"/>
<path d="M326.91 247.75C330.65 246.87 335.14 245.57 338.88 246.89V247C334.91 247.73 330.91 247.22 326.94 247.86L326.92 247.76L326.91 247.75Z" fill="#313663"/>
<path d="M77.58 100.17C77.58 100.17 74.3798 101.15 71.6498 100.84C68.9198 100.53 66.81 102.01 68.09 106C69.37 110 69.7099 109.34 71.0199 117.26C72.3299 125.19 74.5899 144.49 77.4399 153.87C85.5199 180.46 94.2199 196.22 93.9899 199.77C93.7699 203.31 94.4799 209.65 97.9999 207.81C101.52 205.96 115.14 196.32 122.57 196.1C130 195.88 158.97 187.49 169.78 182.91C180.59 178.32 216.39 174.34 225.77 171.21C235.15 168.08 244.08 173.82 245.58 170.59C247.08 167.36 241.24 165.12 240.14 162.76C239.05 160.4 236.92 131.74 232.29 114.88C228.92 102.62 224.36 87.1 218 76.63C216.52 74.52 214.27 72.23 214.38 70.21C214.58 66.35 214.06 65.12 212.02 64.26C210.36 63.56 209.3 64.53 208.36 65.85C207.52 67.04 198.51 71.26 188.18 70.7C178.19 70.16 163.39 73.67 153.13 77.11C142.87 80.55 125.01 83 111.47 85.95C97.6399 88.96 85.7 96.9701 77.57 100.16L77.58 100.17Z" fill="#4463AC"/>
<path d="M111.6 104.8C108.94 103.98 106.17 103.35 103.39 103.52C100.61 103.7 97.7999 104.77 95.9899 106.89C93.6199 109.68 93.3899 113.64 93.2699 117.3C93.1699 120.37 93.0699 123.43 92.9699 126.5C92.9599 126.93 92.9599 127.41 93.2599 127.73C93.6099 128.1 94.1999 128.07 94.7099 128.01C101.86 127.15 109 126.28 116.15 125.42C117.26 125.29 118.39 125.15 119.44 124.76C120.79 124.26 121.96 123.35 123.26 122.72C126.51 121.13 130.3 121.32 133.91 121.46C135.63 121.52 137.79 121.29 138.36 119.67C138.74 118.62 138.21 117.48 137.71 116.48C137.07 115.23 136.44 113.99 135.8 112.74C135.15 111.47 134.47 110.15 133.34 109.26C132.3 108.43 130.97 108.05 129.69 107.7C122.05 105.57 113.64 103.49 111.6 104.81V104.8Z" fill="#6089DB"/>
<path d="M136.09 141.75C129.85 141.53 123.62 141.31 117.38 141.09C112.13 140.9 106.52 140.8 102.04 143.55C98.16 145.92 95.6501 150.37 95.6001 154.91C95.5501 159.82 98.1601 164.35 101.08 168.31C104 172.26 107.35 175.99 109.22 180.54C109.6 181.46 109.98 182.49 110.87 182.94C111.58 183.3 112.43 183.17 113.21 183C119.11 181.7 124.45 178.02 127.75 172.96C128.94 171.14 129.88 169.14 131.24 167.44C134.23 163.71 139.27 161.31 140.39 156.66C140.86 154.72 140.53 152.68 140.21 150.71C139.62 147.15 138.89 141.85 136.09 141.75Z" fill="#6089DB"/>
<path d="M183.08 179.32L166.48 86.51L152.86 82.39C152.86 82.39 149.85 83.12 150.66 90.45C151.47 97.78 149.17 107.08 148.35 122.33C147.54 137.57 150.16 152.18 152.04 162.94C153.92 173.7 155.55 176.14 155.68 180.76C155.76 183.41 155.71 185.56 155.88 187.87C161.46 186.09 166.48 184.33 169.79 182.93C172.72 181.69 177.5 180.49 183.08 179.33V179.32Z" fill="#3A589E"/>
<path d="M116.58 97.1C122.57 98 128.49 99.36 134.29 101.11C140.12 102.78 145.88 105.02 150.82 108.6C150.88 108.64 150.82 108.74 150.76 108.71C149.36 108.12 147.98 107.52 146.59 106.94C142.57 105.33 138.07 103.49 133.99 102.05C128.42 100.02 121.95 98.61 116.58 97.11V97.1Z" fill="#3A589E"/>
<path d="M137.24 99.15C139.72 100.11 142.17 101.21 144.53 102.44C146.29 103.3 148.19 104.35 149.55 105.78C149.76 106.02 151.08 107.36 150.75 107.46C147.83 105.9 145.18 103.97 142.35 102.25C141.93 101.99 141.07 101.48 140.64 101.23C139.5 100.56 138.34 99.9 137.18 99.26C137.12 99.23 137.16 99.12 137.23 99.15H137.24Z" fill="#3A589E"/>
<path d="M144 108.58C145.84 108.49 149.87 107.94 150.77 109.79C149.29 110.19 147.94 109.59 146.53 109.27C146.24 109.12 143.72 108.81 144.01 108.59L144 108.58Z" fill="#3A589E"/>
<path d="M151.46 135.18C136.05 134.41 120.57 134.03 105.17 135.18C105.1 135.19 105.07 135.08 105.15 135.06C112.67 133.02 120.58 133.2 128.31 133.48C135.89 133.85 144.3 134.09 151.47 135.18H151.46Z" fill="#3A589E"/>
<path d="M132.47 129.87C135.71 130.22 138.97 130.66 142.17 131.22C144.53 131.58 147.13 132.04 149.32 133.02C149.7 133.21 151.67 134.05 151.44 134.36C147.45 133.57 143.54 132.59 139.59 131.61C137.3 131.07 134.75 130.49 132.44 129.98C132.37 129.97 132.38 129.85 132.46 129.86L132.47 129.87Z" fill="#3A589E"/>
<path d="M151.47 136.15C148.24 136.38 145.23 137.73 141.99 137.76C141.75 137.57 142.8 137 142.97 136.88C144.42 135.99 146.16 136.04 147.8 135.92C149.03 135.88 150.25 135.9 151.47 136.03C151.54 136.03 151.54 136.15 151.47 136.15Z" fill="#3A589E"/>
<path d="M153.83 154.81C151.11 161.51 147.32 167.75 142.96 173.51C139.15 178.64 134.53 183.24 129.1 186.64C129.04 186.68 128.97 186.59 129.03 186.54C130.26 185.36 131.5 184.22 132.7 183.03C136.28 179.47 139.77 175.8 142.96 171.89C147.2 166.74 150.87 160.37 153.84 154.81H153.83Z" fill="#3A589E"/>
<path d="M152.09 154.02C150.83 158.21 146.28 163.34 141.99 164.51C141.93 164.53 141.88 164.45 141.93 164.41C142.68 163.59 143.49 162.92 144.31 162.2C145.42 161.2 146.73 160.37 147.83 159.35C149.04 158.21 150.19 156.98 151.1 155.58C151.3 155.45 152.07 153.61 152.1 154.02H152.09Z" fill="#3A589E"/>
<path d="M153.84 157.95C153.56 159.46 153.19 161.09 152.81 162.58C152.51 164.16 152 165.72 150.86 166.91C150.82 166.95 150.75 166.92 150.75 166.87C150.66 165.24 151.19 163.72 151.89 162.27C152.11 161.72 152.56 160.63 152.79 160.08C152.98 159.82 153.67 157.63 153.85 157.94L153.84 157.95Z" fill="#3A589E"/>
<path d="M72.34 106.56C75.92 109.23 80.5201 116.13 80.1201 120.48C78.5401 117.9 77.65 115.02 76.28 112.34C75.35 110.58 74.2799 108.87 72.9599 107.38C72.8799 107.2 72.01 106.56 72.34 106.57V106.56Z" fill="#3A589E"/>
<path d="M73.94 105.05C78.6 105.77 83.2301 105.01 87.7501 103.81C88.0501 103.99 86.5701 104.9 86.3401 105.04C84.7301 105.99 82.8401 106.2 81.0101 106.17C78.6101 106.18 76.21 105.85 73.91 105.17C73.84 105.15 73.86 105.04 73.94 105.05Z" fill="#3A589E"/>
<path d="M99.5701 201.89C101.46 197.84 107.29 191.95 111.62 191.45C109.41 193.52 106.77 194.97 104.43 196.86C102.89 198.12 101.44 199.52 100.24 201.12C100.08 201.23 99.6301 202.22 99.5701 201.89Z" fill="#3A589E"/>
<path d="M97.77 200.62C97.53 195.91 95.85 191.53 93.76 187.35C93.88 187.02 95.07 188.29 95.25 188.48C96.5 189.87 97.0999 191.67 97.4299 193.47C97.9299 195.82 98.0899 198.24 97.8899 200.62C97.8899 200.69 97.77 200.69 97.77 200.62Z" fill="#3A589E"/>
<path d="M252.49 56.9399C252.49 56.9399 249.21 56.26 246.97 54.67C244.73 53.08 242.17 53.36 241.37 57.48C240.57 61.6 241.18 61.18 238.51 68.76C235.84 76.34 228.53 94.3499 226.52 103.94C220.81 131.13 220.84 149.14 218.94 152.14C217.04 155.14 214.62 161.04 218.59 161.12C222.56 161.2 239.15 159.3 245.76 162.68C252.38 166.07 281.81 172.66 293.5 173.84C305.19 175.02 338.48 188.76 348.21 190.53C357.94 192.3 363 201.63 365.87 199.52C368.74 197.41 364.7 192.63 364.87 190.03C365.05 187.43 376.98 161.29 381.03 144.28C383.98 131.91 387.45 116.11 386.91 103.88C386.63 101.32 385.76 98.23 386.83 96.5C388.86 93.21 389 91.88 387.63 90.15C386.51 88.74 385.11 89.08 383.66 89.79C382.35 90.43 372.42 89.7899 363.63 84.3299C355.13 79.0499 340.47 75.0099 329.82 73.0799C319.17 71.1499 302.34 64.71 289.05 60.78C275.48 56.76 261.16 58.03 252.49 56.92V56.9399Z" fill="#4463AC"/>
<path d="M339.01 87.42C336.19 87.09 333.25 88.2899 331.46 90.4999C329.33 93.1199 328.97 96.6999 328.17 99.9899C326.54 106.68 322.77 113.13 323.65 119.96C323.72 120.53 323.85 121.13 324.26 121.52C325.18 122.4 326.67 121.68 327.74 121C334.61 116.66 343.14 115.03 351.13 116.53C353.18 116.92 355.58 117.41 357.14 116.03C358.36 114.95 358.54 113.11 358.43 111.48C357.92 104.21 353.41 97.8799 348.71 92.3199C347.3 90.6599 345.81 88.98 343.86 88.01C341.91 87.04 339.37 86.94 339.02 87.43L339.01 87.42Z" fill="#6089DB"/>
<path d="M349.89 133.22C347.24 132.89 344.59 132.55 341.94 132.22C340.58 132.05 339.14 131.89 337.88 132.43C336.62 132.97 335.68 134.5 336.26 135.74C336.79 136.88 338.43 137.69 338.03 138.88C337.84 139.44 337.24 139.74 336.69 139.98C333.97 141.17 331.25 142.37 328.53 143.56C325.7 144.8 322.39 146.8 322.61 149.88C322.75 151.8 324.35 153.34 326.1 154.14C327.86 154.93 329.81 155.16 331.67 155.66C335.07 156.57 338.16 158.39 341.53 159.39C344.9 160.39 348.91 160.4 351.54 158.07C353.83 156.04 354.5 152.78 354.88 149.75C355.27 146.69 355.49 143.53 354.66 140.55C353.84 137.57 351.8 134.78 349.89 133.22Z" fill="#6089DB"/>
<path d="M323.61 173.13C326.5 175.14 329.4 177.16 332.29 179.17C333.53 180.03 334.78 180.9 336.19 181.41C337.71 181.96 339.34 182.07 340.94 182.18C344.27 182.4 348 182.49 350.45 180.22C350.66 180.02 350.87 179.8 350.95 179.52C351.12 178.95 350.73 178.38 350.36 177.91C347.78 174.65 344.78 171.14 340.66 170.6C339.19 170.41 337.68 170.62 336.23 170.3C333.22 169.64 330.96 166.83 327.9 166.5C327.56 166.46 327.22 166.46 326.9 166.56C326.36 166.73 325.96 167.18 325.58 167.61C324.81 168.5 324.03 169.41 323.6 170.5C323.17 171.59 323.2 172.84 323.6 173.13H323.61Z" fill="#6089DB"/>
<path d="M298.82 174.83C303.31 175.91 309.01 177.7 314.97 179.71C313.65 176.95 312.66 175.36 312.66 172.65C312.66 169.58 314.47 154.83 315.51 147.2C316.55 139.57 316.32 129.82 315.51 118.41C314.7 107 310.76 90.4401 307.86 85.6801C304.96 80.9301 305.05 81.06 305.33 77.53C305.6 74 301.82 72.5699 301.82 72.5699L283.83 130.76L298.82 174.82V174.83Z" fill="#3A589E"/>
<path d="M306.08 111.91C307.5 106.44 309.23 101.05 311.27 95.78C313.25 90.48 315.66 85.22 319.39 80.91C319.43 80.86 319.53 80.91 319.49 80.98C316.92 85.96 314.5 91.06 312.17 96.16C309.86 101.18 308.02 107.13 306.07 111.92L306.08 111.91Z" fill="#3A589E"/>
<path d="M307.81 113.28C308.98 110.74 310.26 108.25 311.64 105.81C312.6 104 313.74 102.05 315.18 100.59C315.45 100.36 316.7 98.96 316.87 99.24C315.64 101.74 314.1 104.07 312.47 106.32C310.92 108.64 309.41 110.98 307.92 113.33C307.88 113.39 307.78 113.34 307.81 113.27V113.28Z" fill="#3A589E"/>
<path d="M305.3 137.24C310.93 134.59 316.86 132.15 322.69 129.98C329.35 127.44 336.17 125.2 343.25 124.2C337.07 126.8 329.63 128.59 323 130.86C317.15 132.69 310.77 135.39 305.3 137.24Z" fill="#3A589E"/>
<path d="M306.76 139.41C310.01 138.42 313.34 137.54 316.66 136.84C318.73 136.38 320.87 135.89 323 135.86C324.29 135.81 325.6 135.86 326.87 136.09C326.93 136.1 326.94 136.2 326.87 136.21C323.14 137.05 319.35 137.46 315.57 137.99C312.64 138.46 309.7 138.96 306.78 139.53C306.71 139.55 306.67 139.43 306.75 139.41H306.76Z" fill="#3A589E"/>
<path d="M307.88 152.15C313.12 153.88 318.26 156 323.25 158.34C328.3 160.6 333.2 163.31 337.47 166.85C337.52 166.89 337.47 166.99 337.4 166.95C336.49 166.53 335.51 166.02 334.62 165.55C330.64 163.56 326.73 161.31 322.81 159.21C319.16 157.32 315.4 155.52 311.64 153.86C310.38 153.31 309.11 152.77 307.83 152.26C307.76 152.24 307.8 152.12 307.87 152.14L307.88 152.15Z" fill="#3A589E"/>
<path d="M307.89 155.2C312.62 157.37 320.09 161.77 321.3 166.93C318.66 164.3 316.27 161.47 313.36 159.14C311.62 157.73 309.78 156.44 307.84 155.31C307.78 155.28 307.82 155.17 307.89 155.2Z" fill="#3A589E"/>
<path d="M384.39 92.28C380.07 93.54 371.86 93.09 368.59 90.16C371.61 90.44 374.44 91.46 377.41 91.97C379.38 92.29 381.38 92.45 383.37 92.29C383.55 92.33 384.62 92.02 384.4 92.29L384.39 92.28Z" fill="#3A589E"/>
<path d="M384.63 94.4699C381.26 97.7699 379.09 101.93 377.34 106.26C376.4 103.49 378.78 100.2 380.62 98.04C381.8 96.69 383.11 95.44 384.55 94.37C384.61 94.33 384.68 94.4099 384.63 94.4599V94.4699Z" fill="#3A589E"/>
<path d="M362.56 191.61C361.16 187.34 361.33 179.11 364.15 175.74C363.97 178.76 363.05 181.63 362.64 184.61C362.39 186.59 362.3 188.6 362.52 190.58C362.49 190.76 362.83 191.82 362.56 191.6V191.61Z" fill="#3A589E"/>
<path d="M360.38 191.92C356.97 188.66 352.74 186.63 348.35 185.03C351.06 183.99 354.47 186.28 356.68 188.03C358.07 189.17 359.36 190.43 360.48 191.83C360.52 191.89 360.44 191.97 360.39 191.91L360.38 191.92Z" fill="#3A589E"/>
<path d="M162.95 81.63C162.95 81.63 159.62 81.97 157 81.13C154.39 80.29 152.03 81.33 152.5 85.5C152.98 89.67 153.44 89.09 153.18 97.12C152.92 105.15 151.38 124.53 152.35 134.28C155.1 161.93 160.56 179.09 159.65 182.52C158.74 185.95 158.21 192.31 162.02 191.18C165.83 190.05 181.07 183.25 188.4 184.48C195.73 185.71 225.78 183.13 237.28 180.73C248.78 178.34 284.67 181.4 294.48 180.16C304.29 178.92 311.93 186.29 314.03 183.41C316.13 180.53 310.83 177.2 310.22 174.67C309.61 172.14 313.11 143.61 311.85 126.18C310.93 113.5 309.48 97.39 305.28 85.88C304.24 83.52 302.48 80.84 302.98 78.87C303.93 75.12 303.66 73.8099 301.83 72.5799C300.34 71.5699 299.11 72.32 297.93 73.43C296.87 74.43 287.21 76.82 277.19 74.26C267.5 71.78 252.3 72.3499 241.56 73.7199C230.82 75.0899 212.83 74.03 198.98 74.28C184.83 74.54 171.55 80.07 162.96 81.62L162.95 81.63Z" fill="#B5B8C8"/>
<path d="M286.91 85.79C284.28 85.82 281.6 85.86 279.12 86.73C276.64 87.59 274.34 89.4099 273.6 91.9399C272.56 95.4699 274.73 99.0399 275.79 102.57C277.31 107.63 276.52 113.1 275.2 118.22C274.17 122.23 272.95 126.91 275.52 130.15C278.01 133.29 282.87 133.41 285.81 136.12C286.22 136.49 286.59 136.93 286.78 137.45C287.54 139.51 285.28 141.35 283.32 142.37C279.82 144.2 276.23 145.97 273.32 148.63C269.29 152.33 266.82 157.67 266.62 163.14C266.59 163.91 266.62 164.73 267.06 165.37C267.43 165.91 268.05 166.23 268.64 166.53C272.06 168.25 275.49 169.98 278.91 171.7C279.95 172.22 281.06 172.76 282.22 172.66C282.97 172.59 283.66 172.26 284.32 171.9C293.52 166.91 298.32 156.2 299.55 145.8C300.78 135.4 299.09 124.91 298.65 114.45C298.41 108.67 298.55 102.85 297.46 97.17C296.9 94.26 295.97 91.32 294.03 89.09C292.09 86.86 288.96 85.78 286.9 85.8L286.91 85.79Z" fill="white"/>
<path d="M172.04 97.21C174.32 95.12 178.06 97.23 179.69 99.85C181.32 102.47 182.26 105.77 184.9 107.37C188.67 109.64 194.91 107.84 196.83 111.8C197.17 112.51 197.29 113.3 197.41 114.08C198.1 118.77 198.79 123.47 199.47 128.16C199.75 130.07 199.9 132.34 198.43 133.59C197.35 134.5 195.8 134.5 194.39 134.49C186.02 134.44 176.6 136.73 172.37 143.96C171.55 145.36 171.13 147.5 172.52 148.35C172.93 148.6 173.43 148.67 173.91 148.74C177.12 149.17 180.34 149.61 183.55 150.04C187.24 150.54 191.26 150.97 194.47 149.07C195.67 148.35 196.73 147.32 198.08 146.96C199.9 146.48 201.86 147.37 203.16 148.73C204.46 150.09 205.23 151.86 205.97 153.59C207.7 157.61 209.18 162.91 205.92 165.83C202.92 168.51 198.15 167.02 194.28 168.14C192.64 168.61 191.18 169.56 189.7 170.4C187.37 171.72 184.91 172.81 182.45 173.89C179.48 175.2 176.01 176.5 173.13 175.01C171.9 174.37 170.96 173.29 170.15 172.17C163.28 162.66 163.93 149.91 163.55 138.18C163.32 131.1 162.61 123.99 163.49 116.96C164.37 109.93 166.51 102.27 172.02 97.23L172.04 97.21Z" fill="white"/>
<path d="M279.17 178.33C274.2 175.05 261.05 174.57 258.03 169.73C256.85 167.84 259.26 160.92 259.26 160.92C259.26 160.92 263.28 154.16 263.46 149.98C269.62 145.34 269.88 137.97 269.86 131.72C269.86 131.72 275.02 109.61 258.35 95.95C258.35 95.95 248.77 89.17 244.62 88.01C238.92 86.42 224.85 89.69 219.61 92.85C214.66 95.84 209.06 103.67 206.47 109.41C203.53 115.94 205.81 136.52 205.81 136.52C205.81 136.52 207.11 148.94 210.97 150.62C213.56 154.82 217.59 163.71 216.45 170.63C215.73 175.01 209.59 176.5 202.92 177.42C196.68 178.28 185.06 180.6 181.24 184.96C183.95 184.41 186.46 184.17 188.41 184.49C195.74 185.72 225.79 183.14 237.29 180.74C245.6 179.01 266.67 180.13 281.41 180.42C280.65 179.53 279.9 178.81 279.18 178.34L279.17 178.33Z" fill="#A3AABC"/>
<path d="M248.06 103.46C252.69 96.83 259.65 86.6101 267.26 83.6801C263.86 86.6401 260.35 89.8499 257.16 93.0699C253.95 96.2299 250.87 100.4 248.06 103.46Z" fill="#A3AABC"/>
<path d="M248.85 103.82C250.66 101.73 252.59 99.69 254.58 97.76C256 96.3 257.65 94.76 259.46 93.81C259.77 93.67 261.45 92.7399 261.49 93.0899C259.06 95.5499 256.29 97.6099 253.65 99.8299C253.26 100.16 252.46 100.84 252.07 101.18C251.02 102.08 249.98 103 248.94 103.91C248.89 103.96 248.8 103.88 248.85 103.82Z" fill="#A3AABC"/>
<path d="M200.96 141.17C196.45 141.85 191.93 142.64 187.46 143.57C184.18 144.39 179.02 145.42 175.66 146.09C175.6 146.11 175.56 146.01 175.62 145.98C176.81 145.32 178.08 144.79 179.36 144.35C182.68 143.15 186.21 142.73 189.68 142.22C192.34 141.84 195.05 141.54 197.72 141.31C198.79 141.21 199.87 141.13 200.95 141.06C201.02 141.06 201.04 141.17 200.96 141.18V141.17Z" fill="#A3AABC"/>
<path d="M201.34 142.41C197.97 142.8 195.15 144.6 192.04 145.8C191.75 145.68 192.6 144.79 192.74 144.62C193.65 143.62 194.93 143.13 196.22 142.84C197.88 142.39 199.61 142.19 201.33 142.29C201.4 142.29 201.41 142.4 201.33 142.41H201.34Z" fill="#A3AABC"/>
<path d="M200.95 140.53C195.79 140.11 190.1 140.41 185.05 139.22C184.89 138.92 186.77 138.81 187.06 138.75C189.07 138.54 191.08 138.82 193.06 139.13C194.05 139.26 196.04 139.55 197.02 139.71C198.34 139.93 199.65 140.15 200.96 140.4C201.03 140.41 201.02 140.53 200.95 140.52V140.53Z" fill="#A3AABC"/>
<path d="M185.09 90.4C187.91 92.23 190.62 94.2701 193.2 96.4301C195.12 97.9701 197.15 99.76 198.63 101.73C199.16 102.4 199.64 103.1 200.08 103.83C200.11 103.88 200.04 103.95 199.99 103.91C197.28 101.92 194.91 99.54 192.55 97.16C190.74 95.44 188.86 93.74 186.96 92.11C186.76 91.85 184.69 90.41 185.1 90.4H185.09Z" fill="#A3AABC"/>
<path d="M192.05 92.03C194.59 94.34 200.21 99.37 200.35 102.65C198.44 100.95 197.11 98.79 195.63 96.74C194.45 95.17 193.23 93.62 191.97 92.12C191.92 92.07 192 91.98 192.06 92.03H192.05Z" fill="#A3AABC"/>
<path d="M190.77 100.84C193.19 100.98 195.93 101.3 197.89 102.85C198.13 103.05 199.17 104.19 198.87 104.38C197.26 103.89 195.92 102.97 194.42 102.25C193.23 101.72 192.01 101.29 190.76 100.96C190.69 100.95 190.7 100.84 190.77 100.84Z" fill="#A3AABC"/>
<path d="M255.79 138.47C259.14 137.68 262.59 137.1 266.02 136.72C269.46 136.26 273.05 136.12 276.39 137.24C276.6 137.49 275.23 137.38 275.07 137.43C271.66 137.65 268.22 137.6 264.81 137.76C263.58 137.84 262.18 137.93 260.95 138.05C259.23 138.19 257.52 138.38 255.81 138.59C255.74 138.6 255.71 138.49 255.79 138.47Z" fill="#A3AABC"/>
<path d="M256.4 139.94C260.29 139.12 268.01 137.48 271.04 140.18C268.02 140.11 264.96 139.75 261.94 139.77C260.1 139.79 258.26 139.88 256.43 140.05C256.36 140.05 256.33 139.95 256.41 139.93L256.4 139.94Z" fill="#A3AABC"/>
<path d="M249.11 360.24C256.79 355.63 264.31 347.19 270.89 340.92C277.44 334.67 291.86 356.96 292.83 341.26C293.86 324.57 284.72 294.89 284.72 294.89L238.77 293.53L192.82 294.89C192.82 294.89 183.69 324.57 184.71 341.26C185.68 356.96 200.1 334.67 206.65 340.92C213.28 347.25 220.89 355.78 228.64 360.37C234.93 360.37 241.85 360.33 249.1 360.24H249.11Z" fill="#A9D5F5"/>
<path d="M292.87 344.46C292.94 343.69 292.98 342.91 292.98 342.12C292.98 327.84 281.41 316.27 267.13 316.27C252.85 316.27 241.28 327.84 241.28 342.12C241.28 342.69 241.3 343.25 241.34 343.81C241.53 349.3 241.78 354.82 242.07 360.31C257.72 360.19 275.53 359.83 292.18 359C292.51 352.4 292.75 347.26 292.87 344.46Z" fill="#F9C4B9"/>
<path d="M294.54 348.19C293.94 311.66 268.99 312.46 268.99 312.46C245.43 312.26 237.65 331.82 238.91 350.39C239.07 352.76 239.31 356.17 239.6 360.34C256.59 360.23 276.41 359.85 294.61 358.89C294.61 355.3 294.59 351.72 294.54 348.2V348.19Z" fill="#A9D5F5"/>
<path d="M236.41 342.13C236.41 327.85 224.84 316.28 210.56 316.28C196.28 316.28 184.71 327.85 184.71 342.13C184.71 342.92 184.75 343.7 184.82 344.47C184.96 347.46 185.22 353.15 185.59 360.44C189.53 360.45 193.38 360.34 197.11 360.11C197.11 360.11 213.51 360.45 235.62 360.36C235.92 354.86 236.16 349.33 236.35 343.83C236.39 343.27 236.41 342.71 236.41 342.14V342.13Z" fill="#F9C4B9"/>
<path d="M238.09 360.34C238.38 356.17 238.62 352.75 238.78 350.38C240.04 331.81 232.26 312.25 208.7 312.45C208.7 312.45 183.75 311.65 183.15 348.18C183.08 352.2 183.06 356.29 183.08 360.4C187.89 360.48 192.59 360.38 197.11 360.09C197.11 360.09 214.74 360.46 238.09 360.33V360.34Z" fill="#A9D5F5"/>
<path d="M166.25 273.97C164.88 276.01 162.87 277.66 160.38 278.55C154.17 280.79 147.32 277.57 145.07 271.36C143.95 268.24 144.2 264.97 145.51 262.19L170.34 200.03C172.61 193 175.76 187.77 182.38 185.38C192.01 181.91 202.63 186.9 206.1 196.53C208.35 202.76 207.05 209.41 203.25 214.26L166.76 273.13C166.6 273.41 166.44 273.68 166.26 273.95V273.97H166.25Z" fill="#F9C4B9"/>
<path d="M197.56 184.75C197.56 184.75 186.2 181.45 178.53 186.43C170.85 191.41 165.39 205.72 163.04 211.76C160.69 217.8 156.19 229.86 153.16 234.43C150.13 239.01 135.87 265.19 141.34 275.06C146.81 284.93 157.09 281.64 161.35 279.92C165.61 278.2 174.2 270.7 178.9 264.13C183.6 257.56 194.02 241.19 198.79 234.03C204.58 225.32 224.93 194.66 197.56 184.76V184.75Z" fill="#9E97A6"/>
<path d="M172.19 203.16C173.95 204.29 174.78 206.47 174.91 208.56C175.04 210.65 174.58 212.72 174.34 214.8C173.64 220.87 174.82 226.98 175.22 233.08C175.28 233.99 175.31 234.95 174.92 235.78C174.54 236.57 173.82 237.14 173.12 237.67C169.45 240.47 165.79 243.26 162.12 246.06C159.4 248.13 156.3 250.32 152.9 249.91C153.49 243.9 158.56 239.45 161.27 234.06C162.95 230.71 163.72 227 164.68 223.37C166.49 216.54 169.03 209.9 172.2 203.16H172.19Z" fill="#FCEBEB"/>
<path d="M189.45 248.33L180.78 206.03C180.78 206.03 177.65 230.28 177.74 238.88C177.77 241.57 169.09 242.09 160.19 254.07C158.18 261.51 181.84 257.37 182.26 259.23C184.41 256.03 186.95 252.16 189.45 248.32V248.33Z" fill="#988797"/>
<path d="M309.35 271.7C310.86 273.64 312.98 275.14 315.53 275.86C321.88 277.66 328.49 273.96 330.29 267.61C331.19 264.42 330.71 261.17 329.21 258.49L300.07 198.23C297.31 191.38 293.8 186.38 287.03 184.46C277.18 181.67 266.94 187.4 264.15 197.25C262.35 203.62 264.11 210.16 268.24 214.74L308.78 270.89C308.96 271.16 309.14 271.42 309.34 271.67V271.69L309.35 271.7Z" fill="#F9C4B9"/>
<path d="M271.85 184.91C271.85 184.91 282.95 180.82 290.95 185.24C298.96 189.66 305.42 203.56 308.18 209.42C310.95 215.28 316.28 226.99 319.63 231.34C322.98 235.69 337.18 258.87 332.41 269.1C327.64 279.33 319.03 278.7 314.66 277.29C310.29 275.87 301.19 269 296.04 262.77C290.89 256.54 279.34 240.95 274.08 234.14C267.69 225.86 245.24 196.71 271.84 184.9L271.85 184.91Z" fill="#9E97A6"/>
<path d="M298.04 203.4C297.59 206.97 297.78 210.59 297.97 214.19C298.27 219.94 298.58 225.68 298.88 231.43C298.92 232.11 298.96 232.83 299.32 233.41C300.06 234.6 301.7 234.69 303.06 235.02C305.12 235.51 306.89 236.77 308.61 238.01C312.98 241.15 317.35 244.28 321.71 247.42C320.54 241 317 235.29 313.53 229.76C308.18 221.23 302.83 212.7 298.03 203.41L298.04 203.4Z" fill="#FCEBEB"/>
<path d="M284.41 247.76L289.31 204.25C289.31 204.25 294.37 221.25 294.88 229.83C295.35 237.7 292.78 255.27 292.35 258.14C289.98 255.09 287.18 251.42 284.41 247.76Z" fill="#988797"/>
<path d="M291.26 238.05C288.37 240.21 290.84 246.2 291.61 249.33L326.35 258.15C326.35 258.15 311.79 236.18 291.25 238.06L291.26 238.05Z" fill="#988797"/>
<path d="M283.09 271.54C286.57 260.8 288.9 237.14 288.9 237.14C288.9 237.14 279.08 231.75 238.85 231.75C238.83 231.75 238.8 231.75 238.78 231.75C238.76 231.75 238.73 231.75 238.71 231.75C198.48 231.75 188.66 237.14 188.66 237.14C188.66 237.14 190.99 260.8 194.47 271.54C197.95 282.28 193.42 290.15 192.37 297.41C191.31 304.67 210.85 311.76 238.67 311.3C238.67 311.3 238.71 311.3 238.78 311.3C238.86 311.3 238.89 311.3 238.89 311.3C266.72 311.75 286.25 304.67 285.19 297.41C284.13 290.15 279.61 282.27 283.08 271.54H283.09Z" fill="#F9C4B9"/>
<path d="M214.95 177.76C205.59 182.03 187.58 183.81 184.85 185.02C182.13 186.23 172.3 197.72 190.14 240.83C198.6 262.15 222.78 258.78 233.32 257.27C237.2 256.71 241.15 256.72 245.03 257.27C271.25 261.07 279.5 256.56 287.23 240.83C293.33 221.22 293.15 208.35 292.91 199.84C292.64 190.29 289.36 185.4 287.92 184.76C285.2 183.55 271.63 182.35 262.42 177.76C250.69 171.91 238.68 172.85 238.68 172.85C238.68 172.85 225.83 172.79 214.95 177.76Z" fill="#F9C4B9"/>
<path d="M223.74 172.99C223.95 170.32 224.25 165.75 224.3 161.18C224.39 154.07 226.56 151.12 226.56 151.12C228.45 146.82 232.74 143.82 237.74 143.82C242.74 143.82 247.02 146.82 248.91 151.12C248.91 151.12 251.08 154.07 251.17 161.18C251.23 165.75 251.53 170.32 251.73 172.99C251.86 173.77 251.93 174.56 251.93 175.38C251.93 183.22 245.57 189.58 237.73 189.58C235.44 189.58 223.53 180.38 223.53 175.38C223.53 174.57 223.6 173.77 223.73 172.99H223.74Z" fill="#9A706F"/>
<path d="M237.74 176.26C237.74 176.26 230.78 176.21 223.96 169.87C224.12 167.36 224.27 164.27 224.31 161.17C224.4 154.06 226.57 151.11 226.57 151.11C228.46 146.81 232.75 143.81 237.75 143.81C242.75 143.81 247.03 146.81 248.92 151.11C248.92 151.11 251.09 154.06 251.18 161.17C251.22 164.4 251.38 167.63 251.55 170.18C244.71 177.05 237.75 176.25 237.75 176.25L237.74 176.26Z" fill="#936263"/>
<path d="M237.71 95.39C237.71 95.39 267.76 95.36 263.12 134.7C258.4 174.78 237.71 172.34 237.71 172.34C237.71 172.34 215.04 172.19 211.84 133.94C208.64 95.6899 231.46 95.39 237.71 95.39Z" fill="#9C706D"/>
<path d="M222.41 122.76C225.44 120.69 231.02 124.45 237.19 121.68C245.62 117.9 248.82 120.65 251.32 122.38C253.23 123.7 253.96 129.47 255.19 132.2C256.16 134.36 256.83 141.59 256.68 143.83C255.6 159.77 245.67 167.65 237.57 167.65C230.42 167.65 218.99 155.31 218.01 146.8C217.48 142.75 216.69 137.73 218.37 132.16C218.96 130.18 220.54 124.05 222.41 122.77V122.76Z" fill="#F7AF98"/>
<path d="M249.19 137.56C249.22 141.81 244.25 141.93 244.09 137.68C244.06 133.43 249.03 133.31 249.19 137.56Z" fill="#121D3F"/>
<path d="M231.11 137.97C231.14 142.26 226.13 142.37 225.96 138.09C225.93 133.81 230.94 133.69 231.11 137.97Z" fill="#121D3F"/>
<path d="M237.88 151.05C235.94 151.07 232.91 150.53 234.18 147.93C236.1 144.38 237.1 138.73 237.11 138.68C237.26 137.76 238.7 138.01 238.53 138.93C238.49 139.17 237.48 144.87 235.45 148.62C234.85 149.7 237.45 149.62 238.91 149.57C239.31 149.54 239.65 149.83 239.69 150.22C239.67 151.2 238.74 151.01 237.89 151.05H237.88Z" fill="#E08C79"/>
<path d="M243.74 134.38C243.68 134.94 243.66 135.5 243.7 136.06C245.24 135.85 246.79 135.87 248.34 135.9C248.78 135.9 249.21 135.91 249.65 135.92L249.45 134.02C248.51 134.29 247.51 134.12 246.53 134.02C245.55 133.93 244.49 133.94 243.74 134.37V134.38Z" fill="#F6AF9A"/>
<path d="M243.89 136.9C243.54 136.9 243.24 136.64 243.21 136.28C243.17 135.9 243.45 135.57 243.83 135.53H243.84C245.79 135.34 247.33 135.18 249.83 135.47C250.21 135.51 250.48 135.85 250.43 136.23C250.39 136.61 250.05 136.88 249.67 136.83C247.32 136.56 245.91 136.7 243.97 136.89H243.96C243.96 136.89 243.91 136.89 243.89 136.89V136.9Z" fill="#E08C79"/>
<path d="M225.53 134.85C225.47 135.41 225.45 135.97 225.49 136.53C227.03 136.32 228.58 136.34 230.13 136.37C230.57 136.37 231 136.38 231.44 136.39C231.37 135.76 231.31 135.12 231.24 134.49C230.3 134.76 229.3 134.59 228.32 134.49C227.34 134.4 226.28 134.41 225.53 134.84V134.85Z" fill="#F6AF9A"/>
<path d="M225.68 137.37C225.33 137.37 225.03 137.11 225 136.75C224.96 136.37 225.24 136.04 225.62 136H225.63C227.58 135.81 229.12 135.65 231.62 135.94C232 135.98 232.27 136.32 232.22 136.7C232.18 137.08 231.84 137.35 231.46 137.3C229.11 137.03 227.7 137.17 225.76 137.36H225.75C225.75 137.36 225.7 137.36 225.68 137.36V137.37Z" fill="#E08C79"/>
<path d="M240.51 130.43C239.05 133.99 245.96 131.38 251.45 132.3C254.27 132.77 253.85 131.04 250.49 130.54C247.57 130.1 240.65 129.46 240.5 130.43H240.51Z" fill="#8C4949"/>
<path d="M234.9 130.64C236.36 134.2 229.51 131.68 223.99 132.53C221.16 132.97 221.55 131.25 224.91 130.75C227.83 130.31 234.75 129.67 234.9 130.64Z" fill="#8C4949"/>
<path d="M241.74 147.12C241.22 142.95 255.8 142.28 255.17 146.81C255.07 148.93 242.02 151.29 241.74 147.12Z" fill="#EDA48E"/>
<path d="M231.83 147.35C232.16 143.16 217.56 143.17 218.4 147.66C218.6 149.77 231.74 151.53 231.83 147.35Z" fill="#EDA48E"/>
<path d="M244.29 156.14C244.18 155.96 244 155.83 243.79 155.79C243.76 155.79 243.63 155.75 243.41 155.71C242.16 155.47 237.62 154.76 231.87 155.86C231.66 155.9 231.48 156.02 231.37 156.2C231.27 156.37 231.24 156.57 231.29 156.76C231.36 157.02 231.58 157.22 231.84 157.29C231.96 157.32 232.08 157.33 232.21 157.3C238.53 156.09 243.4 157.2 243.45 157.21C243.86 157.31 244.28 157.07 244.37 156.68C244.42 156.5 244.39 156.31 244.28 156.14H244.29Z" fill="#E08C79"/>
<path d="M235.16 160.43C235.03 160.41 234.96 160.39 234.94 160.38C234.66 160.32 234.48 160.05 234.55 159.78C234.61 159.51 234.89 159.34 235.17 159.4C235.21 159.4 238.3 160.08 240.49 159.36C240.76 159.27 241.05 159.41 241.15 159.68C241.24 159.94 241.1 160.23 240.83 160.32C238.7 161.02 235.97 160.59 235.18 160.43H235.16Z" fill="#EDA48E"/>
<path d="M228.46 142.7C226.6 142.62 225.61 140.98 225.56 140.91C225.4 140.64 225.49 140.29 225.76 140.13C226.03 139.97 226.38 140.06 226.54 140.33C226.54 140.34 227.29 141.56 228.57 141.57C229.63 141.58 230.63 140.78 230.94 139.66C231.02 139.36 231.34 139.18 231.64 139.26C231.94 139.34 232.12 139.66 232.04 139.96C231.59 141.6 230.16 142.73 228.56 142.71C228.53 142.71 228.49 142.71 228.46 142.71V142.7Z" fill="#EDA48E"/>
<path d="M246.45 142.23C246.45 142.23 246.38 142.23 246.35 142.23C244.76 142.12 243.42 140.87 243.11 139.2C243.05 138.89 243.26 138.59 243.57 138.54C243.88 138.48 244.18 138.69 244.23 138.99C244.44 140.13 245.37 141.02 246.43 141.09C247.72 141.18 248.55 140.04 248.56 140.02C248.74 139.76 249.1 139.7 249.35 139.89C249.61 140.07 249.67 140.43 249.48 140.68C249.43 140.75 248.3 142.3 246.44 142.23H246.45Z" fill="#EDA48E"/>
<path d="M263.94 133.09C263.94 133.09 266.4 130.62 266.94 133.88C267.48 137.14 264.49 146.85 260.41 146.79L261.97 133.88L263.94 133.09Z" fill="#9C706D"/>
<path d="M265.48 138.11C265.45 137.88 265.25 137.72 265.02 137.75C264.54 137.81 264.16 137.96 263.85 138.15C264.07 137.39 264.37 136.65 264.8 136.09C264.94 135.91 264.9 135.65 264.72 135.51C264.54 135.37 264.28 135.41 264.14 135.59C262.41 137.88 262.49 142.27 262.49 142.45C262.49 142.67 262.68 142.85 262.9 142.85C263.14 142.85 263.32 142.66 263.31 142.43C263.31 142.41 263.29 141.27 263.48 139.89C263.53 139.72 263.88 138.72 265.1 138.57C265.33 138.54 265.49 138.34 265.46 138.11H265.48Z" fill="#895A58"/>
<path d="M212.08 132.97C212.08 132.97 208.82 130.62 208.28 133.89C207.74 137.15 210.08 146.86 214.25 146.8L212.08 132.97Z" fill="#9C706D"/>
<path d="M211.07 135.59C210.93 135.41 210.67 135.37 210.49 135.51C210.31 135.65 210.27 135.91 210.41 136.09C210.84 136.66 211.14 137.39 211.36 138.15C211.05 137.96 210.67 137.81 210.19 137.75C209.96 137.72 209.76 137.88 209.73 138.11C209.7 138.34 209.86 138.54 210.09 138.57C211.31 138.72 211.66 139.72 211.71 139.89C211.9 141.27 211.88 142.41 211.88 142.43C211.88 142.66 212.05 142.85 212.28 142.85C212.51 142.85 212.7 142.67 212.7 142.45C212.7 142.26 212.79 137.88 211.05 135.59H211.07Z" fill="#895A58"/>
<path d="M208.56 118.9C208.56 118.9 208.2 126.71 209.51 132.19C209.51 132.19 213.37 134.08 213.77 138.16C213.77 138.16 214.68 138.52 214.98 138.16C215.28 137.8 214.98 118.13 214.98 118.13L208.56 118.9Z" fill="#512A2E"/>
<path d="M251.49 112.29C251.49 112.29 253.41 114.11 253.72 117.33C254.02 120.56 254.53 122.78 256.75 125.2C258.97 127.62 259.47 134.58 259.57 138.62H260.41C260.41 138.62 262.42 132.8 265.87 132.22C265.87 132.22 267.14 127.73 267.54 124C267.94 120.27 267.24 105.34 257.76 99.3901C257.76 99.3901 251.99 91.5201 241.61 90.9201C231.23 90.3101 221.04 94.5501 215.19 100.3L217.11 100.2C217.11 100.2 214.59 102.12 212.72 105.95C210.85 109.78 209.44 112.3 207.02 112.51C207.02 112.51 207.92 114.07 209.74 114.75C209.74 114.75 207.42 115.84 205.51 115.54C205.51 115.54 206.17 120.58 211.23 120.89C216.3 121.19 223.52 117.26 223.52 117.26C223.52 117.26 231.12 121.7 237.07 118.97C243.02 116.25 243.48 114.94 245.97 113.93C248.46 112.92 251.48 112.32 251.48 112.32L251.49 112.29Z" fill="#573037"/>
<path d="M210.48 117.05C213.62 117.45 216.76 116.41 219.65 115.11C222.54 113.82 225.34 112.26 228.42 111.53C229.12 111.36 229.87 111.24 230.56 111.46C231.25 111.68 231.85 112.33 231.78 113.05C231.75 113.34 231.64 113.7 231.88 113.88C232.02 113.99 232.22 113.96 232.4 113.93C236.97 113.04 241.46 111.75 245.8 110.08C247.4 109.46 249.06 108.74 250.14 107.41C248.15 107.88 246.15 108.36 244.16 108.83C240.92 109.6 237.51 110.37 234.31 109.47C232.19 108.87 230.09 107.55 227.95 108.07C227.21 108.25 226.55 108.65 225.9 109.04C220.92 112.09 216.13 115.73 210.47 117.04L210.48 117.05Z" fill="#8B4948"/>
<path d="M255.76 112.12C255.04 112.13 254.64 113.02 254.76 113.72C254.88 114.43 255.33 115.03 255.57 115.7C256.14 117.25 255.6 119.06 256.23 120.59C256.65 121.61 257.54 122.36 258.19 123.26C260.53 126.48 259.61 131.11 261.43 134.65C262.1 132.14 262.69 129.52 262.21 126.98C262 125.89 261.61 124.84 261.21 123.8C260.63 122.27 260.05 120.74 259.46 119.21C258.75 117.35 258.04 115.48 256.94 113.82C256.56 113.25 256.14 112.71 255.74 112.11L255.76 112.12Z" fill="#8B4948"/>
<path d="M209.74 114.73C212.57 113.9 215.36 112.78 217.31 110.47C216.16 113.38 212.73 114.88 209.74 114.73Z" fill="#4F282E"/>
<path d="M223.52 117.23C225.69 115.84 228.2 114.84 230.11 113.09C228.89 115.5 226.04 116.72 223.52 117.23Z" fill="#4F282E"/>
<path d="M226.55 103.01C233.95 98.51 244.57 96.3499 251.89 102.1C244.14 97.2699 234.37 99.42 226.55 103.01Z" fill="#4F282E"/>
<path d="M217.1 100.18C219.56 98.4901 222.66 97.14 225.7 97.61C222.72 98.1 219.99 99.3401 217.1 100.18Z" fill="#4F282E"/>
<path d="M251.49 112.29C254.19 108.3 256.22 103.95 257.75 99.38C257.15 104.18 254.94 108.88 251.49 112.29Z" fill="#4F282E"/>
<path d="M257.75 109.46C260.97 112.17 262.91 116.55 262.5 120.76C261.93 116.63 260.23 112.8 257.75 109.46Z" fill="#4F282E"/>
<path d="M209.94 178.83C203.56 181.29 193.74 182.04 193.74 182.04C193.74 182.04 179.95 182.58 177.75 189.19C175.55 195.8 177.79 207.99 181.62 224.32C185.45 240.65 187.41 250.67 189.31 263.55C191.21 276.43 183.89 316.49 183.89 316.49C183.89 316.49 225.28 324.27 292.16 315.41C292.16 315.41 288.55 283.44 288.35 274.97C288.08 263.22 286.84 252.87 288.83 243.29C290.83 233.71 293.75 214.02 293.17 201.74C292.59 189.46 293.1 186.54 289.94 184.74C286.78 182.94 268.95 180.18 263.92 177.65C258.89 175.12 251.88 173.98 251.88 173.98C251.88 173.98 249.74 183.55 234.1 183.79C223.54 183.95 223.57 174.83 223.57 174.83C223.57 174.83 217.88 175.78 209.95 178.84L209.94 178.83Z" fill="#9F96A9"/>
<path d="M188.36 191.81C198.01 186.04 219.13 181.9 219.13 181.9C224.98 184.98 230.28 187.86 236.78 187.64C248.89 187.23 252.23 180.9 256.02 181.37C258.1 181.63 273.21 187.89 281.94 188.91C283.19 189.06 284.06 189.94 284.15 191.21C285.2 196.7 289.06 214.43 282.94 217.02C278.98 218.39 274.05 219.56 271.05 216.63C269.31 214.93 268.85 212.36 267.9 210.13C265.91 205.49 261.59 202.14 256.87 200.35C249.73 197.11 223.01 197.23 216.38 200.99C215.29 201.87 214.62 203.17 213.73 204.25C210.29 208.44 202.85 209.75 201.85 215.75C202.39 222.5 195.23 224.72 190.35 220.99C185.06 216.77 185.32 209.2 186.01 203.06C186.56 200.5 186.07 192.79 188.35 191.8L188.36 191.81Z" fill="#FCEBEB"/>
<path d="M282.31 259.55C283.1 259.62 283.9 259.69 284.68 259.54C285.62 259.36 286.47 258.87 287.24 258.3C287.42 258.17 287.57 258.01 287.73 257.87C287.65 252.78 287.85 247.94 288.82 243.28C289.53 239.86 290.36 235.13 291.11 229.92C287.68 228.5 283.77 228.3 280.05 227.71C275.64 227.02 270.88 225.36 268.81 221.4C267.33 218.56 267.55 215.1 266.2 212.2C264.92 209.46 262.39 207.53 259.83 205.92C257.11 204.2 254.2 202.67 251.04 202.04C248.15 201.46 245.16 201.64 242.22 201.83C237.14 202.15 232.05 202.47 226.97 202.79C225.41 202.89 223.82 202.99 222.34 203.51C219.22 204.6 217.03 207.32 214.56 209.5C210.46 213.12 204.76 216.31 204.45 221.78C204.33 223.89 205.07 226.23 203.91 228C202.57 230.06 199.64 230.04 197.19 230.12C192.5 230.27 187.86 231.69 183.86 234.14C185.71 242.48 187.03 249.31 188.21 256.53C188.53 256.78 188.87 256.98 189.26 257.05C190.03 257.18 190.77 256.77 191.45 256.39C202.37 250.34 215.43 249.28 227.85 250.48C240.27 251.68 252.39 254.99 264.68 257.19C270.52 258.23 276.4 259.03 282.3 259.56L282.31 259.55Z" fill="#9B90A2"/>
<path d="M235.31 185.73C247.94 186.18 253.26 177.96 254.52 174.5C253.23 174.02 251.87 173.97 251.87 173.97C251.87 173.97 249.31 183.12 234.91 183.58C224.36 183.92 223.55 174.82 223.55 174.82C223.55 174.82 222.93 174.92 221.81 175.17C221.97 177.39 224.12 185.33 235.31 185.73Z" fill="#978898"/>
<path d="M386.22 264.45C386.54 262.61 385.36 260.85 383.54 260.46C375.68 258.75 355.73 255.02 342.04 257.84C324.66 261.43 319.5 266.85 307.88 261.23C296.26 255.61 284.01 253.69 270.36 254.56C256.71 255.43 241.28 246.21 214.61 249.74C187.94 253.28 154.46 275.72 140.38 268.74C123.29 260.26 98.9299 264.86 88.9099 267.34C86.3099 267.98 84.3999 270.19 84.1499 272.86C82.3499 292.23 68.48 296.87 67.71 321.79C97.93 349.21 154.93 362.79 197.11 360.1C197.11 360.1 287.99 361.99 330.35 355.66C346.39 353.26 387.98 342.35 401.17 333.09C403.2 328.55 396.94 310.54 389.41 294.47C383.97 282.86 385.2 270.24 386.22 264.46V264.45Z" fill="#1B2963"/>
<path d="M336.57 259.11C323.41 262.51 318.18 266.21 307.89 261.23C296.27 255.61 284.02 253.69 270.37 254.56C260.21 255.21 249.06 250.27 233.04 249.15C218.51 251.58 203.65 254.96 203.65 254.96L189.15 256.85C169.39 264.2 150.2 273.6 140.4 268.74C139.88 268.48 139.35 268.24 138.82 268C137.91 269.62 132.9 279.51 140.93 287.78C149.71 296.81 175.72 300.92 186.15 296.09C218.93 280.9 269.13 280.04 287.42 284C295.07 285.66 319.13 287.24 327.85 283.4C336.23 279.71 338.75 269.6 336.59 259.12L336.57 259.11Z" fill="#19265F"/>
<path d="M385.43 278.03C385.38 277.19 385.35 276.37 385.34 275.57C373.04 273.24 359.29 268.31 342.24 274.47C290.69 290.61 276.41 251.22 210.68 269.89C202.63 272.24 195.16 274.83 187.93 277.34C129.93 301.5 132.32 266.31 82.21 281.92C81.88 282.88 81.5199 283.81 81.1299 284.71C94.5599 280.68 116.28 277.73 130.73 284.71C133.95 285.72 137.6 286.87 141.77 288.02C144.51 288.78 147.4 289.11 150.43 289.11C161.45 289.11 174.32 284.64 188.73 279.65C221.68 266.22 258.97 262.28 293.18 277.1C300.59 280.15 307.86 281.25 314.82 281.25C329.94 281.33 342.64 276.08 356.13 274.04C364.51 272.75 375.31 276.18 385.43 278.03Z" fill="#22306F"/>
<path d="M389.41 294.46C389.05 293.68 388.71 292.9 388.41 292.12C375.33 290.18 360.73 283.82 342.24 290.5C290.69 306.64 276.4 267.24 210.68 285.92C189.31 291.55 160.2 306.57 142.42 301.7C138.29 300.56 134.66 299.42 131.46 298.41C117.56 290.85 90.94 295.07 73.48 299.04C73.01 299.96 72.5501 300.9 72.1201 301.87C89.1101 297.86 116.75 293.04 130.73 300.74C133.95 301.75 137.59 302.9 141.77 304.05C144.51 304.81 147.4 305.14 150.43 305.14C161.45 305.14 174.32 300.67 188.73 295.68C221.68 282.25 258.97 278.31 293.18 293.13C300.59 296.18 307.86 297.28 314.82 297.28C329.94 297.36 342.64 292.11 356.13 290.07C365.65 288.6 378.3 293.23 389.53 294.72C389.49 294.64 389.45 294.55 389.41 294.47V294.46Z" fill="#22306F"/>
<path d="M395.17 307.79C382.85 307.71 367.01 300.82 355.82 302.75C353.46 303.05 350.97 303.39 348.34 303.75C328.03 307.56 290.9 308.81 266.7 306.15C241.75 303.33 208.93 306.09 182.26 313.18C123.04 329.04 139.41 296.47 68.25 315.25C68.13 316.14 68.0199 317.05 67.9299 318C84.1799 313.91 115.52 307.48 130.72 315.85C133.94 316.86 137.59 318.01 141.76 319.16C145.17 320.1 148.71 320.5 152.43 320.5C170.24 320.14 190.6 312.65 210.56 309.99C257.49 303.11 305.09 315.61 348.65 306.17C351.28 305.81 353.77 305.47 356.11 305.17C367.56 303.4 383.52 310.45 396.11 310.25C395.8 309.44 395.48 308.61 395.16 307.79H395.17Z" fill="#22306F"/>
<path d="M400.44 323.54C387.94 321.84 376.87 319.83 350.44 325.4C324.45 330.62 315.73 325.03 291.72 324.77C286.36 324.67 281.47 324.53 276.75 324.41C234.45 317.18 177.42 346.5 142.43 336.29C126.5 329.9 104.55 334.53 85.6299 334.8C87.0499 335.64 88.5 336.46 89.98 337.26C92.1 337.12 94.3199 336.93 96.6399 336.67C113.35 334.49 125.5 334.16 141.78 338.65C147.84 340.32 154.41 341.15 161.67 341.15C177.96 340.9 190.69 338.19 209.81 332.78C243.27 323.05 279.31 326.46 313.6 328.86C325.09 330.16 334.17 331.19 350.93 327.81C376.76 322.6 390.35 324.2 400.98 325.87C400.83 325.14 400.65 324.36 400.45 323.56L400.44 323.54Z" fill="#22306F"/>
<path d="M355.88 343.37C333.9 345.66 309.04 352.16 284.5 347.02C250.11 339.47 240.23 351.57 209.47 351.53C191.29 351.38 176.08 352.04 163.86 352.58C148.61 353.41 138.13 353.67 128.34 352.36C132.91 353.62 137.54 354.74 142.19 355.71C148.48 355.77 155.52 355.48 163.97 355.02C176.16 354.49 191.34 353.82 209.45 353.97C240.16 354.12 249.96 341.99 283.98 349.41C308.95 354.64 333.89 348.15 356.08 345.81C363.18 345.11 369.01 344.79 373.96 344.74C376.32 343.98 378.64 343.19 380.88 342.4C374.56 342.13 366.68 342.31 355.88 343.38V343.37Z" fill="#22306F"/>
<path d="M267.15 237.2C277.84 242.24 285.3 244.81 299.75 249.1C318.28 254.6 325.54 260.15 325.54 260.15C325.54 260.15 335.69 265.2 333.29 273.28C331.49 279.36 326.12 283.62 319.89 282.45C319.33 282.34 318.78 282.2 318.26 282.02C308.03 279.09 294.33 270.91 286.51 266.17C278.27 261.17 259.76 250.14 259.76 250.14C253.21 246.51 253.73 243.6 255.16 240.36C256.73 236.82 261.9 235.39 267.15 237.2Z" fill="#9B706F"/>
<path d="M280.7 237.35C280.7 237.35 282.27 236.31 285.29 237.48C288.31 238.65 292.48 242.78 296.09 244.11C299.71 245.44 312.19 249.88 316.92 251.34C319.21 252.05 327.38 253.51 331.64 257.77C335.45 261.58 338.43 267.86 333.65 275.22C333.65 275.22 329.3 284.44 319.19 284.05C309.08 283.66 296.71 276.7 292.57 274.17C288.43 271.64 274.22 266.07 272.65 261.12L280.69 237.35H280.7Z" fill="#9F96A9"/>
<path d="M267.61 236.49C267.61 236.49 263.59 248.76 260.88 251.75C259.97 252.78 261.62 254.92 264.19 257.19C266.76 259.46 271.6 262.71 272.36 262.25C273.12 261.79 281.13 248.8 282.61 236.92C283.03 236.01 279.38 235.83 275.72 235.4C271.79 234.94 267.81 234.34 267.61 236.49Z" fill="#B2ABBA"/>
<path d="M280.12 240.07C280.16 239.9 280.08 239.73 279.91 239.66C272.49 236.72 268.95 238.19 268.81 238.25C268.64 238.33 268.56 238.53 268.63 238.7C268.71 238.87 268.91 238.95 269.08 238.88C269.12 238.86 272.56 237.48 279.66 240.29C279.84 240.36 280.04 240.27 280.11 240.1C280.11 240.09 280.11 240.07 280.12 240.06V240.07Z" fill="#9B899A"/>
<path d="M278.5 246.14C278.55 245.97 278.45 245.79 278.28 245.73L268.02 242.13C267.84 242.07 267.64 242.16 267.58 242.34C267.51 242.52 267.61 242.72 267.79 242.78L278.05 246.38C278.23 246.44 278.43 246.35 278.49 246.17C278.49 246.17 278.49 246.15 278.49 246.14H278.5Z" fill="#9B899A"/>
<path d="M275.57 251.97C275.61 251.82 275.55 251.66 275.41 251.58C272.59 249.99 266.34 246.56 266.28 246.52C266.11 246.43 265.9 246.49 265.81 246.66C265.72 246.83 265.78 247.04 265.95 247.13C266.01 247.16 272.26 250.6 275.07 252.18C275.24 252.27 275.45 252.21 275.54 252.05C275.55 252.02 275.57 252 275.57 251.97Z" fill="#9B899A"/>
<path d="M272.58 258.16C272.62 258.01 272.55 257.84 272.41 257.77C266.12 254.44 263.87 251.42 263.85 251.39C263.74 251.24 263.52 251.2 263.37 251.31C263.22 251.42 263.18 251.64 263.29 251.79C263.38 251.92 265.64 254.96 272.09 258.37C272.26 258.46 272.47 258.39 272.56 258.23C272.57 258.21 272.58 258.18 272.59 258.16H272.58Z" fill="#9B899A"/>
<path d="M208.33 239.74C201.01 242.01 195.03 243.54 180.43 247.25C161.7 252.01 154.22 257.26 154.22 257.26C154.22 257.26 143.88 261.9 145.95 270.07C147.51 276.22 152.7 280.69 158.97 279.77C159.54 279.69 160.09 279.56 160.62 279.4C170.96 276.88 184.98 269.26 192.98 264.83C201.41 260.16 219.78 248.74 219.78 248.74C219.78 248.74 222.59 242.64 217.73 238.2C215.99 236.61 213.66 238.14 208.34 239.74H208.33Z" fill="#9B706F"/>
<path d="M191.63 239.44C191.63 239.44 190.11 238.34 187.04 239.37C183.97 240.4 179.63 244.35 175.96 245.53C172.29 246.7 159.62 250.6 154.84 251.86C150.06 253.12 137.54 266.93 139.31 272.03C139.31 272.03 143.73 285.73 153.85 286.06C169.51 286.57 173.93 278.07 178.17 275.72C182.42 273.37 196.85 268.42 198.63 263.54L191.62 239.44H191.63Z" fill="#9F96A9"/>
<path d="M204.74 239.14C204.74 239.14 208.23 251.57 210.8 254.68C211.67 255.75 209.92 257.81 207.26 259.97C204.6 262.13 199.61 265.17 198.88 264.68C198.14 264.19 190.69 250.86 189.73 238.93C189.35 238 193 237.98 196.68 237.71C200.62 237.42 204.63 236.99 204.74 239.15V239.14Z" fill="#B2ABBA"/>
<path d="M192.09 242.18C192.05 242.01 192.15 241.84 192.31 241.78C199.85 239.16 203.32 240.78 203.46 240.85C203.63 240.93 203.7 241.14 203.62 241.31C203.54 241.48 203.33 241.55 203.16 241.47C203.12 241.45 199.75 239.92 192.53 242.43C192.35 242.49 192.15 242.4 192.09 242.22C192.09 242.21 192.09 242.19 192.08 242.18H192.09Z" fill="#9A8899"/>
<path d="M193.45 248.31C193.41 248.14 193.51 247.96 193.69 247.91L204.09 244.76C204.27 244.7 204.47 244.81 204.52 244.99C204.58 245.17 204.47 245.36 204.29 245.42L193.89 248.57C193.71 248.63 193.51 248.52 193.46 248.34C193.46 248.34 193.46 248.32 193.46 248.31H193.45Z" fill="#9A8899"/>
<path d="M196.12 254.27C196.09 254.12 196.16 253.96 196.3 253.89C199.19 252.42 205.57 249.26 205.64 249.23C205.81 249.15 206.02 249.22 206.1 249.39C206.18 249.56 206.11 249.77 205.94 249.85C205.88 249.88 199.49 253.04 196.61 254.51C196.44 254.6 196.23 254.53 196.15 254.36C196.14 254.33 196.13 254.31 196.12 254.28V254.27Z" fill="#9A8899"/>
<path d="M198.84 260.58C198.81 260.43 198.88 260.26 199.03 260.19C205.46 257.13 207.84 254.22 207.86 254.19C207.98 254.04 208.2 254.02 208.34 254.14C208.49 254.26 208.51 254.48 208.4 254.62C208.3 254.74 205.92 257.68 199.33 260.82C199.16 260.9 198.95 260.82 198.87 260.66C198.86 260.64 198.85 260.61 198.84 260.59V260.58Z" fill="#9A8899"/>
<path d="M252.98 200.17H222.09C222.051 200.17 222.02 200.201 222.02 200.24V246.3C222.02 246.339 222.051 246.37 222.09 246.37H252.98C253.019 246.37 253.05 246.339 253.05 246.3V200.24C253.05 200.201 253.019 200.17 252.98 200.17Z" fill="#576194"/>
<path d="M252.98 202.57H222.09C222.051 202.57 222.02 202.601 222.02 202.64V249.26C222.02 249.299 222.051 249.33 222.09 249.33H252.98C253.019 249.33 253.05 249.299 253.05 249.26V202.64C253.05 202.601 253.019 202.57 252.98 202.57Z" fill="#2E396F"/>
<path d="M222.28 248.93C222.47 249.16 222.76 249.32 223.08 249.32H251.99C252.58 249.32 253.05 248.85 253.05 248.26V203.62C253.05 203.36 252.95 203.13 252.79 202.95L222.28 248.93Z" fill="#24306B"/>
<path d="M265.28 237.76C263.53 229.32 265.61 224.66 264.3 221.19C260.49 213.02 255.39 206.86 249 201.99C248.38 201.85 248.68 205.03 251.99 208.29C253.72 209.89 255.26 213.91 255.26 213.91C255.26 213.91 252.95 212.07 252.23 211.33C251.2 210.59 237.14 204.58 240.59 209.34C240.59 209.34 238.31 209.1 237.77 209.33C237.22 209.56 238.25 211.22 239.05 211.77C240.39 212.64 243.87 213.91 244.45 215.2C244.45 215.2 239.96 214.29 239.12 214.4C238.28 214.51 238.92 216.02 240.34 216.7C241.76 217.39 243.16 217.84 243.86 218.35C244.56 218.86 247.52 223.56 248.35 225.14C249.2 226.75 250.55 243.25 256.23 247.69C260.66 250.71 266.43 243.29 265.29 237.77L265.28 237.76Z" fill="#9B706F"/>
<path d="M255.26 213.9C256.04 216.18 257.49 218.22 259.4 219.69C258.62 217.4 257.17 215.38 255.26 213.9Z" fill="#824F4F"/>
<path d="M255.62 220.92C250.84 213.26 249.44 211.77 240.6 209.32C251.06 214.98 247.56 211.92 255.62 220.92Z" fill="#824F4F"/>
<path d="M252.18 223.03C251.12 220.77 249.74 218.7 248.2 216.75C247.24 215.77 245.76 215.47 244.45 215.18C245.46 216.12 246.81 216.53 247.63 217.64C249.02 219.52 250.47 221.41 252.18 223.03Z" fill="#824F4F"/>
<path d="M219.77 248.73L222.43 243.87C224.07 241.69 227.41 233.35 227.5 231.02C227.59 228.69 229.35 223.23 229.65 222.2C229.95 221.17 235.64 219.32 236.64 217.89C237.64 216.46 234.53 216.6 232.7 217.05C230.87 217.5 228.5 218.36 228.15 218.52C227.8 218.68 224.88 222.72 224.88 222.72C224.88 222.72 226.43 218.37 227 216.93C227.57 215.48 230.89 214.66 232.29 214.02C233.7 213.38 235.55 212.24 235.41 211.37C235.27 210.5 231.72 210.63 231.72 210.63C231.72 210.63 234.63 209.19 234.66 208.24C234.69 207.29 231.25 206.9 229.43 207.18C229.43 207.18 229.66 205.72 229.07 205.18C228.49 204.64 223.86 205.93 221.58 206.62C219.31 207.31 213.85 214.62 211.58 217.47C209.31 220.32 213.04 227.48 206.93 240.39C205.91 251.36 219.76 248.76 219.76 248.76L219.77 248.73Z" fill="#9B706F"/>
<path d="M229.44 207.15C226.96 208.13 224.27 208.75 221.96 210.05C220.82 211.16 220.05 212.61 219.05 213.86C218.12 214.98 217.25 216.34 216.15 217.22C216.3 216.5 216.72 215.8 217.03 215.13C218.27 212.83 219.76 210.43 222.04 209C224.38 208.35 227.31 207.3 229.45 207.16L229.44 207.15Z" fill="#824F4F"/>
<path d="M231.72 210.61C229.57 211.45 227.42 212.29 225.3 213.2C223.85 214.11 223.18 215.86 222.22 217.23C221.43 218.34 220.75 219.7 219.81 220.64C219.85 219.94 220.16 219.23 220.38 218.57C221.33 216.19 222.71 213.62 225.1 212.39C227.19 211.82 229.83 210.71 231.71 210.6L231.72 210.61Z" fill="#824F4F"/>
</svg>
